name C:\Users\tom_v\MusculoskeletalSpecialization\ResultsSprinting\Case_1\motion.mot
datacolumns 32
datarows 16
range 0.11854147 0.18966635
endheader 
time	pelvis_tilt	pelvis_list	pelvis_rotation	pelvis_tx	pelvis_ty	pelvis_tz	hip_flexion_r	hip_adduction_r	hip_rotation_r	knee_angle_r	ankle_angle_r	subtalar_angle_r	mtp_angle_r	hip_flexion_l	hip_adduction_l	hip_rotation_l	knee_angle_l	ankle_angle_l	subtalar_angle_l	mtp_angle_l	lumbar_extension	lumbar_bending	lumbar_rotation	arm_flex_r	arm_add_r	arm_rot_r	elbow_flex_r	arm_flex_l	arm_add_l	arm_rot_l	elbow_flex_l	
          0.11854147	         -9.01072087	         13.46165408	        -24.59004248	          0.96540548	          0.93808793	          0.02878900	          5.32855878	        -17.71593638	          9.45271779	        -40.28435637	        -18.61115049	         -9.70316103	         -4.90462009	         54.29065466	         -4.32265768	         -9.17783626	        -57.17336097	         16.29892769	          0.93295573	          6.17991441	         -0.81554633	        -11.76435299	         27.95764879	         49.99745345	          4.97185966	         10.12301058	        111.56166111	        -69.99996903	        -42.47149884	        -12.48574680	          0.06000667	
          0.12328313	         -7.84674207	         13.03091228	        -25.60782028	          1.00299115	          0.94126173	          0.03002182	          4.14110703	        -18.26478402	          9.63924323	        -41.12096909	        -20.21221858	         -5.75364635	         -1.74066685	         53.47367945	         -5.11406247	         -9.53538542	        -55.76838617	         17.22082522	          0.57425023	          6.49356253	         -2.16892960	        -12.04091117	         29.21771722	         49.99945278	          4.81045460	         12.14880458	        108.31169847	        -69.82121368	        -42.59994318	         -7.28103718	          0.31636615	
          0.12802479	         -6.64619782	         12.53021774	        -26.60415823	          1.04050773	          0.94460849	          0.03111494	          2.95806430	        -18.72918992	          9.76198023	        -41.98869208	        -20.40011618	         -3.45570439	          0.42663286	         52.38661690	         -5.81342893	         -9.80696523	        -54.09276446	         18.16287010	          0.38727537	          6.31144827	         -3.59914311	        -12.29187326	         30.31747086	         49.99875267	          4.60453378	         13.28280774	        103.76186860	        -69.40542204	        -42.38590732	          1.43585641	          0.90141702	
          0.13276644	         -5.42475624	         11.95659411	        -27.57391221	          1.07794601	          0.94815492	          0.03204107	          1.81029860	        -19.08862244	          9.80699346	        -42.84198787	        -20.52760015	         -3.70166547	          2.41566845	         51.03806535	         -6.40929333	         -9.96238692	        -52.13212259	         19.17161943	          0.36797570	          4.72647714	         -5.09987162	        -12.51548501	         31.28591863	         49.97730759	          4.39926380	         13.37745114	         98.19031648	        -68.72675460	        -41.89252583	         11.16984567	          2.09807790	
          0.13750810	         -4.23821292	         11.34658291	        -28.51726237	          1.11528020	          0.95178512	          0.03274215	          0.80487288	        -19.37575486	          9.84556974	        -43.71324131	        -20.64897043	         -5.15066667	          3.74785917	         49.51643260	         -6.89522656	         -9.99086675	        -49.92341197	         20.07621935	          0.42634185	          2.23923560	         -6.60232520	        -12.73342498	         32.17788535	         49.91672450	          4.12635617	         12.47313299	         92.12236029	        -67.97924107	        -41.20383534	         18.03580291	          4.59341866	
          0.14224976	         -3.22266505	         10.70737643	        -29.38233516	          1.15251035	          0.95523896	          0.03308666	          0.08804405	        -19.54978511	          9.92580194	        -44.65590582	        -20.48729416	         -6.07319064	          4.45127684	         48.01515279	         -7.29780047	         -9.80837068	        -47.57186433	         21.02856596	          0.57907231	         -2.08320805	         -7.97197754	        -12.87894338	         33.03809325	         49.86408983	          3.49846094	         11.04388267	         86.05454194	        -67.59328010	        -40.40180749	         18.92554813	          9.23059398	
          0.14699142	         -2.38690924	         10.00832175	        -30.10968496	          1.18967989	          0.95847398	          0.03293115	         -0.37871586	        -19.58899999	          9.99411825	        -45.65420574	        -20.14663223	         -5.75695909	          5.11623470	         46.59044611	         -7.61377082	         -9.35630909	        -45.17631284	         21.15453736	          0.51287002	         -2.20122535	         -9.23333974	        -12.90644626	         33.86869515	         49.89735051	          2.05624268	          9.97166025	         80.43980603	        -67.90982030	        -39.23765800	         13.59584361	         16.22561615	
          0.15173308	         -1.65590376	          9.22120559	        -30.69242042	          1.22684692	          0.96158405	          0.03221431	         -0.71055847	        -19.51235302	          9.97928169	        -46.66550580	        -19.83126236	         -4.56562694	          5.69641701	         45.15203205	         -7.84168468	         -8.67585487	        -42.76714653	         21.38144541	          0.55789192	         -1.56680785	        -10.48034227	        -12.82380490	         34.70755825	         49.98929724	         -0.67645340	         10.24595179	         75.78755659	        -68.73422896	        -37.27610841	          4.82506661	         25.02552303	
          0.15647474	         -1.05276589	          8.45007086	        -31.10164386	          1.26408165	          0.96445816	          0.03086821	         -0.84651552	        -19.41195023	          9.78949100	        -47.70057024	        -19.55455580	         -3.20904071	          6.04180418	         43.76602167	         -7.91837821	         -7.85706953	        -40.34644150	         21.94850902	          0.71769554	         -1.36944131	        -11.63101862	        -12.70748680	         35.57538556	         49.94577938	         -4.96038879	         12.50788990	         72.72516044	        -69.31134204	        -34.46259508	         -3.78206036	         34.62193683	
          0.16121640	         -0.63240826	          7.81523240	        -31.26296815	          1.30151408	          0.96694040	          0.02887152	         -0.71980811	        -19.36076959	          9.33250496	        -48.76677032	        -19.17902346	         -2.11998555	          6.15471173	         42.55313524	         -7.76068250	         -6.96858101	        -37.92164963	         22.58637810	          0.75505911	         -1.44603880	        -12.57691865	        -12.61129697	         36.42504408	         49.34546146	        -10.43698577	         15.95175221	         71.93643455	        -68.85125832	        -31.23088279	        -10.00374943	         43.72786341	
          0.16595806	         -0.40516833	          7.35147280	        -31.05923732	          1.33932900	          0.96901988	          0.02621758	         -0.40165671	        -19.36349832	          8.51718327	        -49.81698954	        -18.64626914	         -1.35747671	          6.18506407	         41.55900386	         -7.30345032	         -6.02126395	        -35.51006888	         23.07360807	          0.56590136	         -1.53580767	        -13.32387184	        -12.51474901	         37.14172273	         47.63163804	        -16.53198672	         18.77359097	         73.90623750	        -66.83630187	        -28.19042707	        -13.03046140	         50.91642901	
          0.17069971	         -0.33178938	          7.02489968	        -30.37483419	          1.37767604	          0.97080708	          0.02291570	         -0.05433398	        -19.38630487	          7.27778924	        -50.78239471	        -18.00716558	         -0.78921802	          6.24966702	         40.74032472	         -6.51817930	         -5.02341447	        -33.12922187	         23.39081013	          0.32228667	         -1.59249165	        -13.97149859	        -12.36028507	         37.59299299	         44.24122816	        -22.70428198	         19.18897762	         78.63016241	        -63.06049048	        -25.85630971	        -12.67162654	         55.07725103	
          0.17544137	         -0.34271049	          6.78332799	        -29.16766861	          1.41654136	          0.97243893	          0.01903117	          0.18471447	        -19.39512587	          5.63245364	        -51.63638476	        -17.32432335	         -0.24302530	          6.36016300	         39.99595399	         -5.43206377	         -4.05662592	        -30.79047256	         23.67485285	          0.40122855	         -2.15184803	        -14.64260568	        -12.10406857	         37.68949340	         38.91418661	        -28.47948003	         16.38773407	         85.48223560	        -57.40691529	        -24.42685890	         -8.92840284	         55.40647577	
          0.18018303	         -0.40394049	          6.61477713	        -27.49540460	          1.45574702	          0.97392366	          0.01471315	          0.32583660	        -19.37519878	          3.70671453	        -52.43013354	        -16.52219003	          0.42632986	          5.84245410	         39.26749451	         -4.12019279	         -3.27523026	        -28.51291549	         23.85051846	          1.06143379	         -2.54578098	        -15.35392678	        -11.74382782	         37.38447203	         31.96885500	        -33.54029760	         11.11579617	         93.26057373	        -49.85973524	        -23.42634964	         -2.56585995	         51.40269308	
          0.18492469	         -0.53141162	          6.55122582	        -25.48822061	          1.49505504	          0.97511017	          0.01021516	          0.50675900	        -19.33415320	          1.69277025	        -53.26738131	        -15.16526804	          1.28496542	          0.77000506	         38.56241936	         -2.67544061	         -2.84458579	        -26.32766872	         23.69313606	          2.34494272	         -0.79429192	        -15.99899081	        -11.32969529	         36.68227873	         24.02644936	        -37.57831726	          4.45538626	        100.70428808	        -40.76725877	        -22.08631446	          5.53722040	         43.06265609	
          0.18966635	         -0.72573905	          6.60718550	        -23.29760602	          1.53424452	          0.97584259	          0.00584945	          0.85722418	        -19.27801656	         -0.21088265	        -54.19472445	        -14.43881233	          1.81010173	         -3.78629365	         37.86412799	         -1.18491438	         -2.86107951	        -24.26079814	         23.53238549	          4.23857992	          1.81318913	        -16.48560866	        -10.94486892	         35.60200037	         15.91399263	        -40.40788666	         -2.46065175	        106.95156224	        -31.04792276	        -19.62426043	         13.82087709	         31.40920891	
